<svg xmlns="http://www.w3.org/2000/svg" version="1.1" xmlns:xlink="http://www.w3.org/1999/xlink" width="200" height="200"><svg xmlns="http://www.w3.org/2000/svg" version="1.1" xmlns:xlink="http://www.w3.org/1999/xlink" viewBox="0 0 200 200"><rect width="200" height="200" fill="url('#gradient')"></rect><defs><linearGradient id="SvgjsLinearGradient1001" gradientTransform="rotate(45 0.5 0.5)"><stop offset="0%" stop-color="#bef8fd"></stop><stop offset="100%" stop-color="#0e7c86"></stop></linearGradient></defs><g><g fill="#0f172a" transform="matrix(5.222098725073553,0,0,5.222098725073553,16.393454747770534,136.60862976587376)" stroke="#222222" stroke-width="0.2"><path d="M6.69-4.82L4.50-4.82L4.50 0L1.07 0L1.07-14.22L6.75-14.22Q8.38-14.22 9.63-13.62Q10.89-13.02 11.58-11.91Q12.27-10.80 12.27-9.39L12.27-9.39Q12.27-7.31 10.78-6.07Q9.29-4.82 6.69-4.82L6.69-4.82ZM4.50-11.57L4.50-7.47L6.75-7.47Q7.74-7.47 8.27-7.97Q8.79-8.47 8.79-9.38L8.79-9.38Q8.79-10.37 8.25-10.97Q7.71-11.56 6.79-11.57L6.79-11.57L4.50-11.57ZM20.39-10.64L20.33-7.59L19.25-7.67Q17.70-7.67 17.26-6.69L17.26-6.69L17.26 0L13.96 0L13.96-10.57L17.05-10.57L17.16-9.21Q17.99-10.76 19.47-10.76L19.47-10.76Q20-10.76 20.39-10.64L20.39-10.64ZM20.76-4.82L20.75-5.38Q20.75-6.96 21.37-8.20Q21.98-9.43 23.13-10.10Q24.29-10.76 25.84-10.76L25.84-10.76Q28.21-10.76 29.58-9.29Q30.95-7.82 30.95-5.29L30.95-5.29L30.95-5.18Q30.95-2.71 29.58-1.25Q28.20 0.20 25.86 0.20L25.86 0.20Q23.60 0.20 22.24-1.16Q20.87-2.51 20.76-4.82L20.76-4.82ZM24.05-5.77L24.04-5.18Q24.04-3.71 24.50-3.03Q24.96-2.34 25.86-2.34L25.86-2.34Q27.62-2.34 27.66-5.05L27.66-5.05L27.66-5.38Q27.66-8.22 25.84-8.22L25.84-8.22Q24.19-8.22 24.05-5.77L24.05-5.77Z"></path></g></g></svg><style>@media (prefers-color-scheme: light) { :root { filter: contrast(1) brightness(1); } }
@media (prefers-color-scheme: dark) { :root { filter: none; } }
</style></svg>